<?xml version="1.0" standalone="no"?>
<!DOCTYPE svg PUBLIC "-//W3C//DTD SVG 20010904//EN"
 "http://www.w3.org/TR/2001/REC-SVG-20010904/DTD/svg10.dtd">
<svg version="1.0" xmlns="http://www.w3.org/2000/svg"
 width="1600.000000pt" height="1515.000000pt" viewBox="0 0 1600.000000 1515.000000"
 preserveAspectRatio="xMidYMid meet">

<g transform="translate(0.000000,1515.000000) scale(0.100000,-0.100000)"
fill="#ca1a21" stroke="none">
<path d="M7745 14690 c-934 -41 -1824 -253 -2675 -638 -615 -277 -1215 -664
-1740 -1120 -181 -157 -530 -504 -681 -677 -1034 -1180 -1646 -2639 -1764
-4205 -22 -284 -22 -787 -1 -1060 59 -754 213 -1430 479 -2105 638 -1617 1838
-2945 3387 -3748 617 -319 1304 -554 1995 -682 172 -32 546 -79 760 -97 211
-17 849 -17 1070 0 608 48 1148 155 1705 337 1095 360 2059 959 2877 1786 757
766 1321 1677 1679 2709 193 555 319 1178 369 1820 20 259 20 752 -1 1014 -85
1109 -391 2117 -925 3051 -631 1105 -1563 2038 -2665 2671 -1053 604 -2220
924 -3449 947 -132 3 -321 1 -420 -3z m1228 -4106 c72 -36 91 -65 142 -212 30
-88 85 -307 85 -340 0 -34 87 -260 150 -387 37 -77 121 -228 186 -335 213
-354 434 -734 501 -860 25 -47 58 -107 74 -135 44 -80 136 -289 159 -361 25
-82 26 -167 2 -213 -40 -80 -153 -93 -259 -29 -102 61 -172 162 -415 603 -60
110 -142 252 -183 315 -277 437 -367 592 -488 840 -159 328 -214 404 -325 457
-45 21 -65 25 -120 21 -127 -7 -235 -83 -417 -291 -299 -341 -545 -754 -854
-1436 -152 -334 -121 -293 -246 -315 -201 -34 -258 -23 -372 73 l-61 51 232
388 c198 328 320 525 481 772 82 125 304 423 420 565 146 176 362 400 470 487
206 164 468 307 630 343 84 19 169 18 208 -1z m2057 -154 c233 -27 361 -49
681 -119 256 -55 369 -99 427 -165 85 -97 32 -224 -204 -486 -42 -47 -137
-153 -210 -236 -254 -289 -398 -403 -559 -444 -237 -61 -685 -19 -911 84 -292
134 -563 435 -673 748 -16 47 -41 109 -55 137 -30 59 -31 61 -11 61 8 0 15 5
15 10 0 6 8 10 19 10 44 0 159 62 296 161 168 121 330 194 505 228 133 26 151
27 345 29 106 1 219 -5 335 -18z m-4451 -2287 c-12 -21 -33 -56 -46 -79 l-23
-41 63 -50 c132 -106 192 -118 390 -83 l125 23 53 119 c30 66 57 122 61 124 4
3 43 -5 87 -16 435 -111 809 -379 1070 -768 23 -35 72 -123 107 -195 194 -398
235 -841 118 -1276 -112 -413 -377 -779 -744 -1028 -305 -207 -693 -315 -1075
-300 -165 7 -265 23 -427 68 -546 153 -991 560 -1198 1097 -150 389 -159 835
-25 1222 208 599 675 1031 1283 1184 107 27 133 33 175 35 l29 1 -23 -37z
m3889 -69 c576 -92 1062 -436 1330 -944 200 -378 259 -798 172 -1225 -112
-545 -482 -1015 -993 -1260 -237 -114 -448 -164 -727 -172 -336 -10 -589 46
-884 196 -362 184 -675 515 -831 880 l-31 74 36 96 c86 227 123 421 123 651 1
230 -19 358 -93 601 l-23 75 48 88 c227 416 577 713 1024 867 47 16 93 29 103
29 10 0 25 -14 34 -32 9 -18 43 -72 75 -119 126 -188 274 -267 389 -207 65 34
85 75 83 170 -1 68 -19 138 -58 231 -6 15 0 17 59 17 36 0 110 -7 164 -16z"/>
<path d="M10473 10157 c-6 -7 -37 -37 -68 -67 -68 -66 -105 -117 -140 -196
-25 -54 -26 -67 -21 -145 4 -63 14 -105 36 -159 37 -90 77 -160 91 -160 6 0 2
15 -9 33 -155 250 -141 417 50 610 49 49 88 91 88 93 0 8 -15 3 -27 -9z"/>
<path d="M9840 9911 c8 -5 31 -11 50 -15 24 -4 28 -3 15 2 -31 14 -83 24 -65
13z"/>
<path d="M10890 9896 c-64 -32 -105 -94 -104 -155 0 -48 42 -152 85 -212 39
-55 30 -23 -18 61 -81 143 -66 237 46 289 28 14 51 28 51 33 0 12 -11 10 -60
-16z"/>
<path d="M9985 9870 c33 -11 65 -19 70 -19 16 1 -57 26 -95 32 -19 4 -8 -2 25
-13z"/>
<path d="M11670 9875 c-14 -8 -20 -14 -15 -14 6 0 21 6 35 14 14 8 21 14 15
14 -5 0 -21 -6 -35 -14z"/>
<path d="M10453 9773 c9 -2 23 -2 30 0 6 3 -1 5 -18 5 -16 0 -22 -2 -12 -5z"/>
<path d="M10543 9763 c9 -2 23 -2 30 0 6 3 -1 5 -18 5 -16 0 -22 -2 -12 -5z"/>
<path d="M11213 9763 c9 -2 23 -2 30 0 6 3 -1 5 -18 5 -16 0 -22 -2 -12 -5z"/>
<path d="M10663 9753 c9 -2 23 -2 30 0 6 3 -1 5 -18 5 -16 0 -22 -2 -12 -5z"/>
<path d="M11093 9753 c9 -2 25 -2 35 0 9 3 1 5 -18 5 -19 0 -27 -2 -17 -5z"/>
<path d="M10863 9743 c26 -2 67 -2 90 0 23 2 2 3 -48 3 -49 0 -68 -1 -42 -3z"/>
<path d="M5995 7496 c-116 -29 -202 -84 -254 -163 -23 -34 -28 -50 -20 -57 8
-8 13 -7 16 3 3 7 24 36 47 65 50 61 141 111 234 128 39 7 62 16 62 25 0 16
-18 15 -85 -1z"/>
<path d="M7372 7503 c-18 -3 -32 -9 -30 -15 3 -7 49 -12 129 -13 109 -1 132
-4 193 -28 38 -15 91 -43 117 -62 60 -43 74 -29 17 18 -96 77 -272 119 -426
100z"/>
<path d="M5823 7105 c-165 -54 -272 -214 -261 -390 9 -136 88 -253 216 -316
62 -31 74 -34 162 -34 83 0 103 4 153 27 80 38 158 115 193 191 26 55 29 73
29 162 0 88 -3 107 -27 157 -34 74 -113 152 -186 186 -46 21 -74 27 -147 29
-56 1 -106 -3 -132 -12z m155 -101 c136 -68 135 -247 -3 -314 -188 -91 -344
179 -174 301 63 44 108 48 177 13z"/>
<path d="M7360 7103 c-210 -75 -309 -294 -230 -506 56 -149 224 -249 391 -234
113 10 234 90 292 192 36 63 50 126 46 212 -7 137 -84 255 -206 315 -58 28
-78 33 -157 35 -64 2 -104 -2 -136 -14z m187 -99 c56 -27 86 -75 86 -139 0
-90 -65 -155 -154 -155 -83 0 -159 74 -159 155 0 111 125 187 227 139z"/>
<path d="M6100 6086 c0 -31 104 -314 146 -399 107 -215 218 -301 409 -314 238
-16 484 136 603 373 42 82 101 307 86 323 -3 3 -42 -7 -87 -22 -175 -58 -392
-82 -596 -67 -191 15 -295 35 -483 94 -58 18 -78 21 -78 12z m815 -340 c122
-26 255 -79 255 -102 0 -22 -89 -111 -152 -152 -35 -22 -99 -53 -143 -69 -67
-23 -96 -27 -185 -28 -125 0 -168 12 -252 68 -45 30 -76 62 -110 112 -26 39
-48 75 -48 81 0 17 143 70 251 94 108 23 264 22 384 -4z"/>
<path d="M9340 7623 c0 -6 39 -13 88 -15 144 -9 232 -47 350 -153 28 -26 52
-42 52 -37 0 18 -110 109 -171 142 -32 17 -80 37 -106 46 -61 18 -213 31 -213
17z"/>
<path d="M10863 7605 c-29 -8 -72 -24 -94 -36 -45 -22 -139 -105 -139 -122 0
-5 25 13 55 42 75 71 149 103 247 109 43 3 78 8 78 13 0 14 -88 9 -147 -6z"/>
<path d="M9442 7209 c-114 -19 -222 -100 -274 -207 -31 -62 -33 -74 -33 -167
0 -91 3 -106 31 -165 129 -270 508 -293 664 -39 172 280 -64 632 -388 578z
m114 -114 c96 -56 122 -173 57 -253 -43 -53 -85 -74 -144 -74 -136 0 -220 156
-145 269 54 80 152 105 232 58z"/>
<path d="M10775 7194 c-110 -34 -216 -134 -252 -239 -12 -33 -18 -79 -18 -135
0 -74 4 -93 31 -150 58 -121 165 -201 290 -218 170 -22 323 58 397 207 30 61
32 72 32 171 0 91 -3 112 -24 155 -37 75 -121 158 -192 190 -77 34 -189 42
-264 19z m172 -120 c102 -83 96 -226 -13 -290 -118 -69 -264 15 -264 154 0 42
6 58 33 93 45 59 89 81 155 76 39 -3 61 -11 89 -33z"/>
<path d="M10052 6040 c-96 -22 -233 -76 -309 -122 -75 -46 -179 -132 -241
-200 -55 -62 -128 -165 -121 -173 3 -2 41 22 86 54 265 190 583 276 921 249
262 -20 530 -125 730 -285 23 -19 47 -33 53 -31 14 5 -83 143 -149 211 -146
150 -327 251 -534 297 -117 26 -318 26 -436 0z"/>
</g>
</svg>
